<svg version="1.1" id="Layer_1" xmlns="http://www.w3.org/2000/svg" xmlns:xlink="http://www.w3.org/1999/xlink" x="0px" y="0px"
	 width="100%" viewBox="0 0 448 272" enable-background="new 0 0 448 272" xml:space="preserve">
<path fill="#000000" opacity="1.000000" stroke="none" 
	d="
M128.015137,198.896149 
	C113.185226,176.665176 114.252953,147.109833 130.322922,128.851242 
	C146.504211,110.466171 173.157150,106.384735 194.395569,119.030701 
	C195.078217,119.437172 195.817413,119.748619 196.816345,120.247139 
	C197.892365,115.148361 197.468460,110.331978 197.531952,105.573120 
	C197.656448,96.243759 197.610199,86.908096 197.399536,77.580353 
	C197.319611,74.040817 198.233002,72.423462 202.133560,72.604446 
	C208.286423,72.889938 214.463913,72.776253 220.627243,72.649887 
	C223.812973,72.584572 225.150314,73.853996 225.143539,77.050209 
	C225.094421,100.214043 225.752518,123.402420 224.865204,146.532333 
	C224.372787,159.368500 216.023300,168.910614 206.414566,176.856827 
	C201.610764,180.829453 196.508347,184.571945 188.583038,186.378082 
	C193.318405,180.592117 196.308182,175.471863 197.337006,169.280899 
	C199.857742,154.112106 189.275787,138.811661 174.919708,137.349136 
	C158.274628,135.653412 145.421860,147.295090 145.301849,164.176193 
	C145.161697,183.889206 160.359879,196.233490 179.951553,192.289307 
	C198.244064,188.606689 212.413651,179.025040 221.960861,162.845963 
	C222.436295,162.040298 222.667892,160.911819 224.015900,160.856674 
	C225.688904,162.015808 225.100388,163.838806 225.104462,165.389847 
	C225.144363,180.554550 224.942764,195.722244 225.192688,210.882751 
	C225.276855,215.988052 223.498947,217.739410 218.504745,217.331879 
	C214.034958,216.967133 209.506668,217.117691 205.013885,217.291397 
	C200.233978,217.476196 195.795639,217.529922 197.212784,210.087875 
	C170.861267,224.293289 147.820282,221.967194 128.015137,198.896149 
z"/>
<path fill="#000000" opacity="1.000000" stroke="none" 
	d="
M243.190002,203.809052 
	C238.314926,198.675156 234.849350,193.102646 232.011612,186.972214 
	C227.588806,177.417572 228.770248,168.465744 234.129364,159.914948 
	C241.683105,147.862534 253.019257,141.808838 266.791656,139.679733 
	C267.682648,141.955185 266.063080,142.377762 265.141846,143.128204 
	C255.799255,150.738480 252.485458,163.601379 256.902527,175.241440 
	C261.272095,186.756302 271.337372,193.366272 283.819214,192.637756 
	C290.758179,192.232742 296.843597,189.454803 301.278625,184.092209 
	C304.036743,180.757248 306.275909,180.752655 309.645142,183.015594 
	C314.059601,185.980515 318.734833,188.586548 323.438934,191.081009 
	C326.858887,192.894531 326.879700,194.577103 324.656525,197.626846 
	C305.997467,223.223450 267.402008,226.343353 243.190002,203.809052 
z"/>
<path fill="#000000" opacity="1.000000" stroke="none" 
	d="
M297.558472,142.384445 
	C281.997375,132.801895 266.427094,134.663895 250.954803,141.340927 
	C242.502213,144.988617 235.834778,150.954346 231.447586,159.222626 
	C231.061584,159.950134 230.715179,160.725708 229.735825,160.820496 
	C227.624603,145.640610 239.996078,123.257957 261.465546,115.253578 
	C287.670013,105.483871 315.805908,116.682159 326.108673,136.101974 
	C319.532104,140.150314 312.915131,144.234726 306.284698,148.297119 
	C304.631226,149.310150 303.512360,148.377243 302.410065,147.199234 
	C300.935272,145.623138 299.371765,144.130096 297.558472,142.384445 
z"/>
</svg>