<svg width="448" height="272" viewBox="0 0 448 272" fill="none" xmlns="http://www.w3.org/2000/svg">
<path d="M128.015 198.896C113.185 176.665 114.253 147.11 130.323 128.851C146.504 110.466 173.157 106.385 194.395 119.031C195.078 119.437 195.817 119.749 196.816 120.247C197.892 115.148 197.468 110.332 197.532 105.573C197.656 96.2438 197.61 86.9081 197.399 77.5804C197.319 74.0408 198.233 72.4235 202.133 72.6045C208.286 72.89 214.464 72.7763 220.627 72.6499C223.813 72.5846 225.15 73.854 225.143 77.0502C225.094 100.214 225.752 123.402 224.865 146.532C224.373 159.369 216.023 168.911 206.414 176.857C201.611 180.829 196.508 184.572 188.583 186.378C193.318 180.592 196.308 175.472 197.337 169.281C199.858 154.112 189.276 138.812 174.92 137.349C158.274 135.653 145.422 147.295 145.302 164.176C145.162 183.889 160.36 196.234 179.951 192.289C198.244 188.607 212.414 179.025 221.961 162.846C222.436 162.04 222.668 160.912 224.016 160.857C225.689 162.016 225.1 163.839 225.104 165.39C225.144 180.555 224.943 195.722 225.193 210.883C225.277 215.988 223.499 217.739 218.505 217.332C214.035 216.967 209.507 217.118 205.014 217.291C200.234 217.476 195.795 217.53 197.213 210.088C170.861 224.293 147.82 221.967 128.015 198.896Z" fill="white"/>
<path d="M243.19 203.809C238.315 198.675 234.849 193.103 232.012 186.972C227.589 177.418 228.77 168.466 234.129 159.915C241.683 147.862 253.019 141.809 266.792 139.68C267.683 141.955 266.063 142.378 265.142 143.128C255.799 150.738 252.485 163.601 256.903 175.241C261.272 186.756 271.337 193.366 283.819 192.638C290.758 192.233 296.844 189.455 301.279 184.092C304.037 180.757 306.276 180.753 309.645 183.016C314.06 185.98 318.735 188.587 323.439 191.081C326.859 192.894 326.88 194.577 324.657 197.627C305.998 223.223 267.402 226.343 243.19 203.809Z" fill="white"/>
<path d="M297.559 142.384C281.997 132.802 266.427 134.664 250.955 141.341C242.502 144.988 235.835 150.954 231.448 159.222C231.062 159.95 230.715 160.726 229.736 160.82C227.625 145.64 239.996 123.258 261.466 115.253C287.67 105.484 315.806 116.682 326.109 136.102C319.532 140.15 312.915 144.235 306.285 148.297C304.631 149.31 303.512 148.377 302.41 147.199C300.935 145.623 299.372 144.13 297.559 142.384Z" fill="white"/>
</svg>
